<?xml version="1.0" encoding="UTF-8"?>
<!DOCTYPE svg PUBLIC "-//W3C//DTD SVG 1.1//EN" "http://www.w3.org/Graphics/SVG/1.1/DTD/svg11.dtd">
<!-- Creator: CorelDRAW -->
<svg xmlns="http://www.w3.org/2000/svg" xml:space="preserve" width="159.292mm" height="13.2616mm" version="1.1" style="shape-rendering:geometricPrecision; text-rendering:geometricPrecision; image-rendering:optimizeQuality; fill-rule:evenodd; clip-rule:evenodd"
viewBox="0 0 15914.99 1324.97"
 xmlns:xlink="http://www.w3.org/1999/xlink"
 xmlns:xodm="http://www.corel.com/coreldraw/odm/2003">
 <defs>
  <style type="text/css">
   <![CDATA[
    .fil1 {fill:white}
    .fil0 {fill:white;fill-rule:nonzero}
   ]]>
  </style>
 </defs>
 <g id="Capa_x0020_1">
  <metadata id="CorelCorpID_0Corel-Layer"/>
  <g id="_105553137474016">
   <path class="fil0" d="M0.02 0.38l0 254.8 1129.43 0 0 -254.8 -1129.43 0zm0 534.9l1129.43 0 0 254.79 -824.17 0 0 534.89c-152.79,0.09 -305.28,-65.95 -305.28,-254.79 0,-171.11 0.02,-363.82 0.02,-534.89z"/>
   <path class="fil0" d="M9234.01 0.38l-762.6 0 0 254.8 710.18 0c115.16,0 172.99,69.88 173.47,140.05 -0.49,70.18 -58.32,140.04 -173.47,140.04l-710.18 0c-0.5,180.58 0,354.3 0,534.88 0,175.19 212.88,254.73 305.29,254.8l0 -534.88 457.31 0c554.2,0 554.2,-789.7 0,-789.7z"/>
   <path class="fil1" d="M13102.65 0.38l305.28 0 0 1324.58c-143.49,-0.73 -305.28,-109.96 -305.28,-254.8l0 -1069.78z"/>
   <path class="fil1" d="M2229.38 0.38l305.29 0 0 1324.58c-143.5,-0.73 -305.28,-109.96 -305.28,-254.8l-0.01 -1069.78z"/>
   <path class="fil0" d="M5163.47 0.38l-323.47 0 -336.75 707.54 164.36 340.32 495.86 -1047.85zm-628.15 1324.58l-636.72 -1324.58 -323.48 0 511.44 1069.78c58.57,122.65 274.98,254.68 448.76,254.8z"/>
   <path class="fil0" d="M6212.15 0.39l0 254.8 1124 0 0 -254.8 -1124 0zm0 536.69l0 252.99 1124 0 0 -252.99 -1124 0zm0 533.08c0,145.39 89.41,254.8 305.28,254.8l818.73 0 0 -254.8 -1124 0z"/>
   <path class="fil0" d="M11291.62 789.69l195.67 280.87c132.94,185.07 288.09,254.49 556.93,254.4l-390.55 -560.57c169.88,-59.64 254.8,-215.05 254.8,-368.64 0,-198.78 -137.34,-395.76 -415.63,-395.76l-762.59 0 0 254.8 710.18 0c115.66,0 173.47,70.48 173.47,140.95 0,70.47 -57.82,140.94 -173.47,140.94l-710.18 0 0 252.99 561.36 0z"/>
   <path class="fil0" d="M15914.99 1324.96l-557.81 -711.97 469.84 -612.6 -359.61 0 -298.17 375.87 -298.16 -375.87 -361.42 0 823.99 1069.77c134.23,167.3 338.18,253.08 581.34,254.8zm-896.83 -278.74l-190.48 -240.54 -418.84 519.29 392.15 0 217.17 -278.74z"/>
  </g>
 </g>
</svg>
